<mxfile host="app.diagrams.net" modified="2022-05-24T14:11:34.576Z" agent="5.0 (Windows)" etag="4blvvHbI7V9ds7HAzUqC" version="15.9.4" type="github">
  <diagram id="f0RrZm_dwljk18yw8r-3" name="Page-1">
    <mxGraphModel dx="632" dy="343" grid="1" gridSize="10" guides="1" tooltips="1" connect="1" arrows="1" fold="1" page="1" pageScale="1" pageWidth="1169" pageHeight="827" math="0" shadow="0">
      <root>
        <mxCell id="0" />
        <mxCell id="1" parent="0" />
        <mxCell id="Nhr0QOWk4sVuPaejaaME-1" value="" style="rounded=0;whiteSpace=wrap;html=1;strokeWidth=11;glass=0;fillColor=none;" vertex="1" parent="1">
          <mxGeometry x="120" y="80" width="936" height="726" as="geometry" />
        </mxCell>
        <mxCell id="Nhr0QOWk4sVuPaejaaME-2" value="" style="rounded=0;whiteSpace=wrap;html=1;glass=0;sketch=0;strokeWidth=4;fillColor=none;" vertex="1" parent="1">
          <mxGeometry x="120" y="80" width="440" height="360" as="geometry" />
        </mxCell>
        <mxCell id="Nhr0QOWk4sVuPaejaaME-3" value="" style="rounded=0;whiteSpace=wrap;html=1;glass=0;sketch=0;strokeWidth=4;fillColor=none;" vertex="1" parent="1">
          <mxGeometry x="120" y="440" width="290" height="366" as="geometry" />
        </mxCell>
        <mxCell id="Nhr0QOWk4sVuPaejaaME-4" value="" style="rounded=0;whiteSpace=wrap;html=1;glass=0;sketch=0;strokeWidth=4;fillColor=none;" vertex="1" parent="1">
          <mxGeometry x="410" y="580" width="200" height="226" as="geometry" />
        </mxCell>
        <mxCell id="Nhr0QOWk4sVuPaejaaME-5" value="" style="rounded=0;whiteSpace=wrap;html=1;glass=0;sketch=0;strokeWidth=4;fillColor=none;" vertex="1" parent="1">
          <mxGeometry x="610" y="580" width="170" height="226" as="geometry" />
        </mxCell>
        <mxCell id="Nhr0QOWk4sVuPaejaaME-9" value="" style="curved=1;endArrow=none;html=1;rounded=1;sketch=0;endFill=0;entryX=1.003;entryY=0.008;entryDx=0;entryDy=0;entryPerimeter=0;" edge="1" parent="1" target="Nhr0QOWk4sVuPaejaaME-3">
          <mxGeometry width="50" height="50" relative="1" as="geometry">
            <mxPoint x="410" y="560" as="sourcePoint" />
            <mxPoint x="460" y="510" as="targetPoint" />
            <Array as="points">
              <mxPoint x="360" y="560" />
              <mxPoint x="330" y="500" />
            </Array>
          </mxGeometry>
        </mxCell>
        <mxCell id="Nhr0QOWk4sVuPaejaaME-10" value="" style="curved=1;endArrow=none;html=1;rounded=1;sketch=0;endFill=0;entryX=0.729;entryY=1;entryDx=0;entryDy=0;exitX=1;exitY=1;exitDx=0;exitDy=0;entryPerimeter=0;" edge="1" parent="1" source="Nhr0QOWk4sVuPaejaaME-2" target="Nhr0QOWk4sVuPaejaaME-2">
          <mxGeometry width="50" height="50" relative="1" as="geometry">
            <mxPoint x="480.8699999999999" y="339.99800000000005" as="sourcePoint" />
            <mxPoint x="480" y="437.23" as="targetPoint" />
            <Array as="points">
              <mxPoint x="530" y="340" />
              <mxPoint x="430" y="437.23" />
            </Array>
          </mxGeometry>
        </mxCell>
      </root>
    </mxGraphModel>
  </diagram>
</mxfile>
